<?xml version="1.0" encoding="utf-8"?>
<!-- Generator: SketchAPI 2022.10.24.12 https://api.sketch.io -->
<svg version="1.1" xmlns="http://www.w3.org/2000/svg" xmlns:xlink="http://www.w3.org/1999/xlink" xmlns:sketchjs="https://sketch.io/dtd/">
<g sketchjs:uid="1" style="fill-rule: evenodd;">
	<path d="M75.36 8.64c-1.732-.748-3.25-1.71-5.04-2.4.402 1.121 3.19 1.928 3.84 3.6 2.639.162 4.99.61 6 2.4-2.123-1.442-7.19-2.534-9.6-1.44-1.014-1.343-.944-2.522-2.16-3.84 2.182.138 2.637 2.003 4.32 2.64-1.276-1.626-3.349-3.347-5.52-4.08-.89-.3-2.363.334-2.64-.96 2.577-.37 5.591.749 7.92 1.92 3.78-2.36 11.593-2.512 15.6-.24.542-.134-.291-.374.24-.72 2.004.642 4.005-.34 6.239-.72-2.463 1.137-5.199 2-7.439 3.36-.604-.632.602-.809.72-1.44-3.8-1.646-10.311-2.032-13.68.24.125.835 1.442.478 1.2 1.68zM95.04 5.04c.179-.542 1.346-.094 1.92-.24-.46.515-1.251.526-1.92.24z" sketchjs:uid="2"/>
	<path d="M78.48 6.48c.689.03 1.14.3.96 1.2-.675-.045-1.022-.417-.96-1.2zM79.92 6.48c.751-.111 1.071.208.96.96-.61-.029-.931-.349-.96-.96zM81.6 6.48c.714-.286 1.031 1.012.48 1.2-.807.246-.374-.746-.48-1.2zM59.28 9.84c.037-1.016-.377-.004-.48.24-.905-.854-2-1.521-2.88-2.4C35.776 6.496 29.651 24.448 8.88 21.12c.062-.703-.542-.737-.48-1.44C25.875 24.117 35.247 8.449 49.68 6.72c4.981-.597 9.263.356 11.28 3.84a3.056 3.056 0 0 1 2.16.96c3.079.655 4.446-1.6 6-1.68 1.209 1.757-1.213 3.646-1.68 5.76-.822 3.722 1.107 6.402 3.84 6.72-1.354 2.49-3.18-1.18-4.56-1.68-.39-1.451-1.746-1.935-1.92-3.6-.92.277-3.372 1.046-4.08 0 .818-1.022 3.526-.153 4.32-1.2-1.046-1.693-4.902-1.791-4.8-3.84 2.01.95 3.647 2.273 6.72 2.16.607-.193.612-.988.96-1.44-4.003 1.805-6.292-.851-8.88-2.4-.039-.279.053-.427.24-.48zM77.04 6.72c.74.06.736.864 1.2 1.2-.611.789-1.757-.776-1.2-1.2zM82.8 6.72h.72c.068.627-.087 1.032-.72.96v-.96zM84.24 6.72c.889.029.604.349.479.96.624-.096.724-.716 1.44-.72.104.904-.507 1.093-.96 1.44-.565.005-.707-.413-1.44-.24-.114-.755.343-.938.481-1.44zM75.36 7.2c1.015.024 1.434.646 1.68 1.44-.968-.072-1.726-.354-1.68-1.44zM146.16 23.28c-1.398 1.886-5.656.846-7.44.24-3.778-1.282-6.706-4.547-10.08-7.2-6.104-4.8-13.268-7.408-23.76-8.16v-.72c.194-.045.239-.241.48-.24 8.111.586 14.522 2.936 20.159 6.48 5.165 3.247 10.209 8.818 16.801 9.359 1.22.102 2.78-.553 3.84.241z" sketchjs:uid="3"/>
	<path d="M56.4 10.56c-.491 1.153-1.756.476-2.4 0-7.501-.276-14.608 2.697-19.44 5.04.786-1.509 2.872-1.919 4.56-2.64 4.27-1.822 11.164-4.424 17.28-2.4zM122.64 13.68c-.964.347-1.615-.751-2.64-1.2-3.649-1.598-11.407-2.427-16.32-1.68-.039-.279.054-.427.24-.48 6.86-1.395 14.6.419 18.72 3.36z" sketchjs:uid="4"/>
	<path d="M114.96 11.76c-.054.746-1.194.405-1.92.479-.792.359.803.283.479.96-1.69-.475-1.587 1.596-3.359 1.68-.619.058.329.413 0 .96-.842-.042-1.799-.198-1.44.96-3.565.893-7.533-1.19-11.04-.24 1.162-2.509 5.242-.342 7.44-.24 1.006-.189.742-.935 1.92-.48.885-.175-.103-.722.479-1.2 1.629.088 2.929-1.959 5.04-2.16-.892-.548-2.387-.493-3.84-.48-.127-.193-.25-.39-.239-.72 1.88-.482 4.91-.141 6.48.481zM50.64 11.52c-2.35 1.024-5.714 2.268-8.16 2.4 1.541-1.834 5.523-2.459 8.16-2.4zM105.6 11.28c.001.657-1.604.935-1.92.48-.15-.947 1.32-.282 1.92-.48zM48.96 13.2c.275.755-.377.583-.48.96.256.949.728-.061 1.44 0 .206.766-.377.742-.48 1.2.961.059 1.794-.708 1.68.72.427-.213.61-.67 1.44-.48-.112.512.343.457.72.48-.916 1.525-2.822.388-4.08.72-.338-.857-.296-1.38-1.44-.96-.12-.755.523-.938 0-1.44-.448.191-.879.401-1.44.48.074-.553-.693-.267-.72-.72.139-1.301 2.392-.489 3.36-.96zM79.92 13.2c1.095.101 1.016.661 2.16.24-.483 1.117-.707 2.493-.96 3.84-1.542-.681-.543-2.465-1.2-4.08zM38.88 14.4c-.725 1.035-2.076 1.444-3.36 1.92.6-1.16 2.078-1.442 3.36-1.92zM76.8 18.48c-1.391-.251-2.831 2.348-4.56.96.964-.795 2.997-.522 3.12-2.16-.385-1.285-1.434-1.626-2.4-1.44-1.54.297-.995 1.892-2.16 2.4v-2.16c.92-2.257 3.361-.25 4.56 0 .638.133.402-.816.96-.24.708.731.821 1.552.48 2.64zM125.28 15.12c2.53 1.629 4.626 3.694 7.439 5.04a6.109 6.109 0 0 1-.479 1.92c-1.507-.973-3.272-1.688-4.32-3.12 1.047.233 1.729.832 2.64 1.2-1.09-2.207-4.81-3.014-5.28-5.04zM55.68 15.6c-.112.751-1.324 1.196-1.92.72.252-.628.975-.785 1.92-.72zM60.48 15.84c-.255.945-.939 1.461-1.92 1.68-.397-.76.914-1.557 1.92-1.68zM58.08 16.08c-2.289 2.193-5.863 2.558-8.88 3.84s-5.536 3.008-7.68 5.041c-.244 1.995-1.455 3.024-2.4 4.319-1.094.146-.987-.537-.72-1.2-.748.451-1.519 1.339-2.64.721 2.659-4.142 7.936-5.665 11.28-9.12 3.684-.265 7.277-2.623 11.04-3.601z" sketchjs:uid="5"/>
	<path d="M72.72 16.32c.556-.076.921.039 1.2.24.01.729.14 1.58-.72 1.44-.828.079-.878-1.253-.48-1.68zM87.84 16.56c.054.854-.162 1.438-.72 1.68-1.725-.114-.704-2.844.72-1.68z" sketchjs:uid="6"/>
	<path d="M84.48 18c1.071-.191.765.995 1.439 1.2 2.239.774 3.634-.753 3.36-2.4 3.133 2.696-5 5.435-4.799 1.2zM45.12 23.52c1.266-1.824 3.637-2.65 5.76-3.6a41.24 41.24 0 0 1 6.96-2.4c.068.388-.227.413-.24.72-4.559 1.361-7.999 3.841-12.48 5.28zM29.76 18.48c.615 1.455-4.23 2.77-5.76 2.88 1.34-1.54 4.471-1.289 5.76-2.88zM33.6 18.72c-2.867 2.259-7.237 4.273-11.28 4.56 3.638-1.483 8.478-3.041 11.28-4.56zM35.52 22.8c-.039-.279.053-.427.24-.48 2.77-1.31 5.052-3.108 8.4-3.84-2.576 1.594-5.697 3.891-8.64 4.32zM80.4 18.48c1.124 1.276 1.868 2.931 3.119 4.08-1.216 1.664-.744 5.015-3.359 5.28.114-2.515-1.387-3.414-2.4-4.801-1.346-.252-1.627.826-2.64.24-.03-1.39 1.806-.914 2.64-1.44.748-1.251 2.34-1.66 2.64-3.359zm.48 6.96c.753-.767 1.081-1.959 1.68-2.88-.927-.273-.903-1.496-1.68-1.92-1.148 1.306-2.171 3.795 0 4.8zM120.96 18.96c3.175 2.265 7.159 3.721 10.08 6.24-3.42-1.071-7.34-3.698-10.08-6.24zM126.72 19.44c1.995 1.525 4.89 2.151 6.24 4.32-2.3-1.215-4.77-2.274-6.24-4.32zM92.4 23.76v-.721c2.19-.635 4.716.378 6 1.44-.215-1.388-3.472-1.807-4.32-3.36 1.003-.572 2.246.394 2.88.96.457-.787-1.611-1.101-2.16-1.68 2.719-.624 5.948 2.361 7.681 4.32-1.355.427-2.732.045-3.841.72-1.608-1.183-4.149-1.633-6.239-1.679z" sketchjs:uid="7"/>
	<path d="M124.08 23.28c.175.655-.477.483-.48.96 4.344 1.432 9.844 2.938 15.601 2.16.504-.066-.348-.641.24-.96.79.01 1.194.405 2.159.24-.218-.422-.841-.439-1.199-.72.284-.845 2.706-.531 3.359-.24.157.956-.912.688-1.68.72-.595.175.792.723 0 1.2-.779.139-1.116-.164-1.68-.24-.771-.21-.498.622-.96.72-.341-.021-.68-.039-.721.24-5.357.567-9.933-.925-13.439-2.16-1.669-.588-3.954-.326-4.8-1.92.879-.582 1.733.567 2.64.72-.969-1.67-3.205-2.074-4.561-3.359 1.48-.601 3.65 2.052 5.52 2.639z" sketchjs:uid="8"/>
	<path d="M120.72 20.16c1.858 1.422 4.644 1.917 5.761 4.08-2.12-1.165-4.41-2.151-5.76-4.08zM125.28 20.4h.72c1.696 2.224 5.342 2.498 6.96 4.8-2.83-1.334-5.62-2.697-7.68-4.8zM14.16 23.04c-.759-.921-3.25-.109-3.6-1.439 1.441.238 2.961.398 4.32.72.175.655-.477.483-.48.96.741.06 1.357.243 1.92.48-1.151.425-3.62.104-4.08-.96.89-.171 1.03.409 1.92.239zM30.48 21.84c-1.193 1.547-4.226 2.467-6.24 2.4 1.707-1.173 4.276-1.484 6.24-2.4z" sketchjs:uid="9"/>
	<path d="M37.44 23.52c.039.281.438.202.72.24-.77 1.15-2.512 1.327-3.12 2.64 1.016.316 2.485-2.109 3.6-1.68-.427 1.206-2.502 2.754-4.08 3.6-.173-.733.245-.874.24-1.439-.678-.198-.622.338-1.2.239-.57-.49.33-.949-.24-1.439-5.337 2.212-15.782 1.974-19.68-1.44 3.645.535 7.467 2.186 11.76 2.16 5.231-.031 9.488-2.338 13.2-4.32.408-.088.453.187.48.48-.51.369-1.07.689-1.68.959zm-.24.24c-1.24.6-2.712.968-3.6 1.92 1.571-.269 2.428-1.252 3.6-1.92zM71.28 23.52c-.062-.782.285-1.155.96-1.2.378.406-.025 1.386-.96 1.2zM72.48 22.8c.501-.379 1.594-.167 2.16-.48.032.592.036 1.156-.24 1.44-.937-.463-1.976.582-1.92-.96zM84.24 22.32c.633.359 1.747 1.138 1.2 1.92-.817-.174-1.538-1.348-1.2-1.92z" sketchjs:uid="10"/>
	<path d="M35.52 22.8c-1.061 1.26-2.792 1.847-4.8 2.16.683-1.506 3.731-1.829 4.8-2.16zM31.2 22.8c-.284 1.671-2.974 2.098-4.32 1.92.844-1.236 3.035-1.126 4.32-1.92zM117.84 23.04c1.053 1.028 3.229.931 4.08 2.16h-2.4c-.51-.774-1.42-1.144-1.68-2.16zM96.24 26.64c2.145-.128 4.831 2.507 4.8 4.56-2.21-.91-2.205-4.034-4.8-4.56zM93.6 6c-.017 1.343-1.902.817-1.92 2.16.236.672.641-.349.96.24-.27.61-.589 1.17-.96 1.68.209.709.359-.557.96-.24 3.168 3.812 6.222-.66 10.08-.96.504-.067-.348-.641.24-.96.673.128 1.248.353 1.92.48-.788 1.43-2.334 1.062-4.08 2.16-2.862 1.8-3.588 4.089-7.68 2.64.055-1.401-2.351-1.398-1.92-2.4-4.116-.763-6.263 1.255-9.12 2.4.005-.565-.413-.707-.24-1.44 1.652-.668 2.676-1.965 4.8-2.16.614-.011.293.178.24.48 1.382.022 2.604-.117 3.36-.72.04-.521-.852-.108-1.2-.24.479-2.081 2.756-2.364 4.56-3.12zM90.24 17.04c-.945-.015-.164-1.756-1.2-1.68-.709.209.557.359.24.96-1.521-.936-4.09-.544-4.32 1.2-1.902-2.935 6.295-3.729 5.28-.48z" sketchjs:uid="11"/>
	<path d="M102.96 21.36c-.648-1.673-4.541-2.177-5.76-4.08 4.616.633 10.272 2.317 13.439 5.76.463-.024-.372-.894.24-1.2 1.326 1.234 2.632 2.488 3.84 3.84.026-.99-2.066-1.93-2.399-3.36 1.967-.047 2.312 1.527 3.6 2.16-.525-1.556-3.479-2.76-4.56-4.56 2.956 1.524 5.588 3.372 7.439 6-1.602-.432-3.147.11-3.6.96-1.151.108-1.814-1.426-2.641-.24-.798-.082-.851-.909-1.439-1.2-.039.741.567 1.356 0 1.92-1.091-.11-2.514-3.184-1.2-3.36-1.938-2.862-5.365-4.234-9.12-5.279 1.549 1.011 3.297 1.823 5.04 2.64-.754.926-1.771 1.59-2.64 2.4-3.227-1.074-5.469-5.218-9.36-4.08-.683-1.036 1.721-3.741-.24-4.56-.016-.42 1.233-1.301 1.2-.24 1.972-.749 3.571-1.869 6-2.16-1.76 1.359-4.239 2-4.56 4.8 2.361 1.158 4.43 2.608 6.72 3.839zm-1.68-.24c-1.835-.826-3.889-2.644-5.521-2.88 1.543 1.1 3.993 2.565 5.521 2.88zm11.52 3.84c-.801-.319-.836-1.404-1.68-1.681.27.701.89 2.303 1.68 1.681zM99.36 31.2c-.284.276-.849.271-1.44.24.012-.812-.559-1.041-.96-1.44-.224.177-.363.437-.479.721-2.034-2.255-4.94-1.605-8.4-1.681.641 1.896.24 2.991-.48 4.561-1.274-.395-1.175.585-1.439 1.2-1.577-.022-1.574-1.626-3.12-1.681v-2.399c-2.215.234-2.812.109-4.8-.48.005-.565-.414-.706-.24-1.439-1.979-2.084-5.168-2.769-7.92-4.561.669-1.28 1.977.664 2.88.721.246-.235.485-.475.72-.721 2.852 2.566 6.22 6.6 11.52 4.561-.211 1.205.062 1.606 0 3.12.234.324.809.311.96.72.567-1.373-.401-3.275-.96-4.32 1.506-.814 2.25-2.389 4.08-2.88-.487 1.325 1.399 1.819 2.16 2.64-.141-1.299-1.655-1.225-1.921-2.399.611-.582 1.171.239 1.681.479.188-.988-1.149-.45-.96-1.439.678-.912 1.521.226 2.399.479-.255-1.024-1.632-.927-2.159-1.68-1.967.273-2.334 2.146-4.32 2.4 1.104-1.251.056-1.363-.24-2.881.652.148 1.124.477 1.44.96.355-.104-.095-.307 0-.72.83-.189 1.013.267 1.439.48-.462-1.077.203-1.166.96-.721.356-.104-.095-.307 0-.72 1.569.759 1.192-1.195 2.88-.96-.039.279.054.427.24.48-.311.57-1.207.553-1.2 1.44 2.461 2.738 6.481 3.918 7.679 7.92zm-12 .24c.057-1.018-.02-1.901-.721-2.16.201.76-.096 2.016.721 2.16zM84 30.24c-.433 3.033 1.034.81 0 0z" sketchjs:uid="12"/>
	<path d="M68.4 24.72c-.801 2.159-3.191 2.729-4.08 4.8 2.582-.698 2.761-3.799 5.52-4.32.121 1.801-1.756 1.604-2.16 2.88 1.527-.232 1.933-1.586 2.88-2.399 2.002.157 3.104 1.215 4.32 2.16.254 1.976-.738 3.572-.24 5.04 2.593-.26-.353-4.614 2.4-4.561 1.726 1.873 1.07 6.722-3.12 5.521-.214-.746-.882-1.038-1.68-1.2-.149-1.51.689-2.03.72-3.36-.208-.709-.359.557-.96.24-2.231-1.866-5.242-.052-7.2 1.2-.678.198-.622-.339-1.2-.24-1.248 1.396-2.043.449-3.12 1.92-.388.067-.413-.227-.72-.24 2.111-3.531 4.761-6.248 8.64-7.441zm-5.52 4.32c-.209.419-.803.925 0 .48.492-.708 1.067-1.333 1.92-1.68.048-.752.619-.981.96-1.44-1.367.473-1.88 1.801-2.88 2.64zm13.92 2.4c.317-.387.519-2.114-.24-2.16.148.651-.305 1.905.24 2.16z" sketchjs:uid="13"/>
	<path d="M58.08 32.64c-.36-.359-.718-.722-.96-1.2 1.339-1.638 2.794-4.383 4.56-4.8-.235.885-1.051 1.188-1.44 1.92 2.39-1.699 4.483-4.944 7.44-5.28-.764 1.834-3.625 2.474-5.04 3.84-1.506 1.455-2.184 4.359-4.56 5.52zM57.36 24c2.909-.451 5.312-3.487 8.4-4.56-1.113 1.927-3.506 2.574-5.04 4.08 1.91-.479 3.628-2.197 5.76-1.68-2.549 1.051-5.381 1.819-6.96 3.84-.645-1.403-1.753.572-2.16.479-.967-.22-2.005-2.365-2.88-3.12-.309.331-1.042.238-1.68.24.487-1.427-.403-.547-1.44-.479 1.146-2.739 5.739-4.09 8.4-4.8-1.618 1.662-4.456 2.104-6.24 3.6 2.244.518 4.573-2.913 7.68-3.12-1.49 1.791-4.37 2.19-5.76 4.08 2.565-1.115 4.517-2.843 7.2-3.84-1.199 2.162-4.304 2.416-5.76 4.319 3.048-.564 4.875-3.588 7.44-3.839-2.055 1.865-4.382 3.457-6.96 4.8z" sketchjs:uid="14"/>
</g>
</svg>